<svg width="428" height="428" viewBox="0 0 428 428" fill="none" xmlns="http://www.w3.org/2000/svg">
<g clip-path="url(#clip0_479_22)">
<path d="M163.399 100.194C163.399 100.194 134.005 6.11527 210.429 0.235343C286.852 -5.64459 263.337 97.2542 263.337 97.2542C263.337 97.2542 310.367 9.05524 366.215 64.9146C389.73 88.4343 380.911 138.414 333.882 161.933C333.882 161.933 430.881 144.294 427.941 217.793C425.002 291.292 333.882 264.832 333.882 264.832C333.882 264.832 410.305 314.812 360.336 367.731C310.367 420.65 263.337 332.451 263.337 332.451C263.337 332.451 285.382 428 217.777 428C150.172 428 158.99 348.621 161.929 333.921C161.929 333.921 114.9 413.3 59.0517 363.321C16.431 320.691 88.4453 266.302 88.4453 266.302C88.4453 266.302 -5.6142 278.062 0.264515 207.503C6.14323 136.944 91.3846 163.403 91.3846 163.403C91.3846 163.403 12.0219 107.544 61.991 63.4446C117.839 13.4652 163.399 100.194 163.399 100.194Z" fill="white"/>
<path d="M87.256 256H108.76C129.592 256 143.992 244.768 143.992 219.904C143.992 195.04 129.592 184.48 107.8 184.48H87.256V256ZM104.44 242.176V198.208H106.744C118.264 198.208 126.424 202.912 126.424 219.904C126.424 236.896 118.264 242.176 106.744 242.176H104.44ZM157.194 256H174.378V230.848H182.634L195.786 256H214.986L199.05 227.68C206.442 224.224 211.338 217.504 211.338 207.04C211.338 189.76 198.666 184.48 183.402 184.48H157.194V256ZM174.378 217.312V198.112H182.058C190.218 198.112 194.634 200.32 194.634 207.04C194.634 213.76 190.218 217.312 182.058 217.312H174.378ZM241.507 220.288C243.331 213.184 245.251 204.832 246.979 197.344H247.363C249.283 204.64 251.107 213.184 253.027 220.288L254.563 226.336H239.971L241.507 220.288ZM215.107 256H232.579L236.707 239.584H257.827L261.955 256H280.003L257.827 184.48H237.283L215.107 256ZM318.541 257.344C328.525 257.344 337.357 253.408 342.349 248.608V215.2H315.757V229.216H327.085V240.736C325.549 241.888 322.861 242.56 320.365 242.56C307.021 242.56 300.685 234.304 300.685 220.096C300.685 206.176 308.269 197.92 318.829 197.92C324.781 197.92 328.525 200.32 332.077 203.488L341.101 192.544C336.205 187.648 328.717 183.232 318.253 183.232C299.149 183.232 283.117 196.864 283.117 220.672C283.117 244.864 298.765 257.344 318.541 257.344Z" fill="#7B1FA2"/>
</g>
<defs>
<clipPath id="clip0_479_22">
<rect width="428" height="428" fill="white"/>
</clipPath>
</defs>
</svg>
